# xmcd CD database file
#
# Track frame offsets:
#	150
#	15842
#	27610
#	45362
#	65917
#	89582
#	104845
#	120245
#	140605
#	153550
#	178297
#
# Disc length: 2624 seconds
#
# Revision: 3
# Processed by: cddbd v1.5.2PL0 Copyright (c) Steve Scherf et al.
# Submitted via: CDex 1.51
#
DISCID=990a3e0b
DTITLE=Hubert Sumlin - Healing Feeling
DYEAR=1990
DGENRE=Blues
TTITLE0=I Don't Want To Hear About Your
TTITLE1=Healing Feeling
TTITLE2=Just Like I Treat You
TTITLE3=Come Back Little Girl
TTITLE4=Play It Cool
TTITLE5=Without A Friend Like You
TTITLE6=I Don't Want No Woman
TTITLE7=Blue Shadows
TTITLE8=Down The Dusty Road
TTITLE9=Honey Dumplins
TTITLE10=Blues For Henry
EXTD=YEAR: 1990
EXTT0=
EXTT1=
EXTT2=
EXTT3=
EXTT4=
EXTT5=
EXTT6=
EXTT7=
EXTT8=
EXTT9=
EXTT10=
PLAYORDER=
